<svg width="407" height="407" viewBox="0 0 407 407" fill="none" xmlns="http://www.w3.org/2000/svg">
<path d="M72.6188 317.641C93.925 302.76 115.062 291.346 136.03 283.398C156.998 275.451 179.488 271.477 203.5 271.477C227.512 271.477 250.086 275.451 271.223 283.398C292.361 291.346 313.582 302.76 334.889 317.641C349.769 299.378 360.338 280.947 366.594 262.346C372.851 243.745 375.979 224.13 375.979 203.5C375.979 154.462 359.492 113.456 326.518 80.4818C293.544 47.5079 252.538 31.0209 203.5 31.0209C154.462 31.0209 113.456 47.5079 80.4818 80.4818C47.5079 113.456 31.0209 154.462 31.0209 203.5C31.0209 224.13 34.2337 243.745 40.6594 262.346C47.0851 280.947 57.7382 299.378 72.6188 317.641ZM203.5 218.719C183.885 218.719 167.398 212.039 154.039 198.681C140.68 185.322 134.001 168.835 134.001 149.22C134.001 129.605 140.68 113.118 154.039 99.7589C167.398 86.4002 183.885 79.7209 203.5 79.7209C223.115 79.7209 239.602 86.4002 252.961 99.7589C266.32 113.118 272.999 129.605 272.999 149.22C272.999 168.835 266.32 185.322 252.961 198.681C239.602 212.039 223.115 218.719 203.5 218.719ZM203.5 406.417C175.768 406.417 149.558 401.09 124.87 390.437C100.182 379.784 78.6217 365.242 60.1901 346.81C41.7585 328.378 27.2162 306.818 16.5631 282.13C5.90994 257.442 0.583374 231.232 0.583374 203.5C0.583374 175.43 5.90994 149.135 16.5631 124.616C27.2162 100.097 41.7585 78.6217 60.1901 60.1901C78.6217 41.7585 100.182 27.2162 124.87 16.5631C149.558 5.90994 175.768 0.583374 203.5 0.583374C231.57 0.583374 257.865 5.90994 282.384 16.5631C306.903 27.2162 328.378 41.7585 346.81 60.1901C365.242 78.6217 379.784 100.097 390.437 124.616C401.09 149.135 406.417 175.43 406.417 203.5C406.417 231.232 401.09 257.442 390.437 282.13C379.784 306.818 365.242 328.378 346.81 346.81C328.378 365.242 306.903 379.784 282.384 390.437C257.865 401.09 231.57 406.417 203.5 406.417ZM203.5 375.979C222.101 375.979 240.279 373.274 258.034 367.863C275.789 362.451 293.291 352.982 310.539 339.454C293.291 327.279 275.705 317.979 257.78 311.553C239.856 305.127 221.763 301.915 203.5 301.915C185.238 301.915 167.144 305.127 149.22 311.553C131.296 317.979 113.709 327.279 96.4615 339.454C113.709 352.982 131.211 362.451 148.966 367.863C166.721 373.274 184.899 375.979 203.5 375.979ZM203.5 188.281C214.999 188.281 224.384 184.646 231.655 177.375C238.926 170.103 242.562 160.718 242.562 149.22C242.562 137.721 238.926 128.336 231.655 121.065C224.384 113.794 214.999 110.158 203.5 110.158C192.001 110.158 182.617 113.794 175.345 121.065C168.074 128.336 164.439 137.721 164.439 149.22C164.439 160.718 168.074 170.103 175.345 177.375C182.617 184.646 192.001 188.281 203.5 188.281Z" fill="#999999"/>
</svg>
