<svg width="334" height="334" viewBox="0 0 334 334" fill="none" xmlns="http://www.w3.org/2000/svg">
<path d="M313.15 333.037L191.512 211.4C182.262 219.417 171.471 225.66 159.137 230.131C146.804 234.602 133.7 236.837 119.825 236.837C86.525 236.837 58.3125 225.275 35.1875 202.15C12.0625 179.025 0.5 151.121 0.5 118.437C0.5 85.7541 12.0625 57.85 35.1875 34.725C58.3125 11.6 86.3708 0.0374756 119.363 0.0374756C152.046 0.0374756 179.873 11.6 202.844 34.725C225.815 57.85 237.3 85.7541 237.3 118.437C237.3 131.696 235.142 144.492 230.825 156.825C226.508 169.158 220.033 180.721 211.4 191.512L333.5 312.687L313.15 333.037ZM119.363 209.087C144.338 209.087 165.613 200.223 183.188 182.494C200.762 164.765 209.55 143.412 209.55 118.437C209.55 93.4625 200.762 72.1104 183.188 54.3812C165.613 36.6521 144.338 27.7875 119.363 27.7875C94.0792 27.7875 72.5729 36.6521 54.8438 54.3812C37.1146 72.1104 28.25 93.4625 28.25 118.437C28.25 143.412 37.1146 164.765 54.8438 182.494C72.5729 200.223 94.0792 209.087 119.363 209.087V209.087Z" fill="#999999"/>
</svg>
